<?xml version="1.0" standalone="no"?>
<!DOCTYPE svg PUBLIC "-//W3C//DTD SVG 20010904//EN"
 "http://www.w3.org/TR/2001/REC-SVG-20010904/DTD/svg10.dtd">
<svg version="1.0" xmlns="http://www.w3.org/2000/svg"
 width="5579.000000pt" height="5579.000000pt" viewBox="0 0 5579.000000 5579.000000"
 preserveAspectRatio="xMidYMid meet">
<metadata>
Created by potrace 1.11, written by Peter Selinger 2001-2013
</metadata>
<g transform="translate(0.000000,5579.000000) scale(0.100000,-0.100000)"
fill="#000000" stroke="none">
<path d="M21920 45575 l0 -2125 2135 0 2135 0 0 -2871 0 -2871 -22 5 c-60 15
-319 59 -453 77 -613 82 -1293 88 -1995 19 -1128 -111 -2262 -420 -3425 -935
-262 -116 -855 -412 -1120 -560 -868 -484 -1778 -1102 -2607 -1771 l-128 -103
0 1490 0 1490 -4285 0 -4285 0 0 -2130 0 -2130 1965 0 1965 0 0 -7550 0 -7550
-2110 0 -2110 0 0 -2125 0 -2125 6505 0 6505 0 0 2125 0 2125 -2075 0 -2075 0
0 6323 0 6324 208 150 c2664 1924 4868 2893 6583 2893 946 0 1656 -276 2117
-825 148 -175 315 -463 413 -710 236 -593 369 -1347 409 -2315 6 -158 10
-2319 10 -6107 l0 -5863 -2130 0 -2130 0 0 -2125 0 -2125 6500 0 6500 0 0
2125 0 2125 -25 0 c-24 0 -25 2 -25 65 l0 65 -2025 0 -2025 0 0 6323 0 6324
198 155 c314 247 464 355 837 603 812 540 1478 929 2205 1289 1111 551 2106
875 2985 973 227 25 785 25 970 0 658 -89 1189 -335 1621 -750 218 -210 364
-406 484 -652 214 -438 288 -908 352 -2230 8 -176 12 -2389 15 -8262 l4 -8023
54 0 55 0 0 -65 0 -65 4330 0 4330 0 0 2093 c0 1150 -3 2136 -7 2190 l-6 97
-2008 0 -2008 0 -4 6253 c-3 4522 -7 6318 -15 6492 -48 999 -106 1608 -213
2247 -85 509 -212 1020 -344 1376 -246 668 -601 1227 -1095 1723 -995 999
-2313 1558 -3980 1689 -1446 113 -2761 -80 -4196 -616 -439 -164 -817 -330
-1314 -579 -1076 -538 -2122 -1189 -3125 -1943 l-120 -91 -3 6545 -2 6544
-4450 0 -4450 0 0 -2125z"/>
</g>
</svg>
